# xmcd CD database file
#
# Track frame offsets:
#	150
#	7702
#	26005
#	38821
#	53462
#	67361
#	84696
#	93334
#	105636
#	117879
#	138872
#	159297
#	166729
#	177051
#	197742
#
# Disc length: 2796 seconds
#
# Revision: 0
# Processed by: cddbd v1.4PL0 Copyright (c) Steve Scherf et al.
# Submitted via: CDex 1.50beta10
#
DISCID=b10aea0f
DTITLE=Silvan Zingg - Silvan Zingg's Boogie Woogie Xmas
DYEAR=2003
DGENRE=Blues
TTITLE0=Let it snow, let it snow, let it snow!
TTITLE1=Oh Tannenbaum - Sentimental Journey
TTITLE2=Jingle Bells
TTITLE3=Happy Xmas (War is over)
TTITLE4=Santa Claus is coming to town
TTITLE5=Stille Nacht, Silent Night
TTITLE6=Rdolph, the red nosed reindeer
TTITLE7=The Ketchup Song
TTITLE8=When the saints go marchin' in
TTITLE9=Leise rieselt der Schnee - Amazing Grace
TTITLE10=Tu scendi dalle stelle
TTITLE11=Let it snow, let it snow, let it snow! (Piano Solo)
TTITLE12=Java
TTITLE13=White Christmas
TTITLE14=Xmas Boogie Woogie Medley
EXTD=YEAR: 2003
EXTT0=
EXTT1=
EXTT2=
EXTT3=
EXTT4=
EXTT5=
EXTT6=
EXTT7=
EXTT8=
EXTT9=
EXTT10=
EXTT11=
EXTT12=
EXTT13=
EXTT14=
PLAYORDER=
